<?xml version="1.0" encoding="utf-8"?>
<!-- Generator: Adobe Illustrator 19.2.1, SVG Export Plug-In . SVG Version: 6.00 Build 0)  -->
<svg version="1.1" id="Layer_1" xmlns="http://www.w3.org/2000/svg" xmlns:xlink="http://www.w3.org/1999/xlink" x="0px" y="0px"
	 viewBox="0 0 52 52" style="enable-background:new 0 0 52 52;" xml:space="preserve">
<style type="text/css">
	.st0{fill:#FFFFFF;}
	.st1{fill:#010101;}
</style>
<g>
	<circle class="st0" cx="13.3" cy="29.8" r="8.5"/>
	<path class="st1" d="M13.3,39c-5.1,0-9.2-4.1-9.2-9.2s4.1-9.2,9.2-9.2c5.1,0,9.2,4.1,9.2,9.2S18.4,39,13.3,39z M13.3,22.1
		c-4.2,0-7.7,3.5-7.7,7.7s3.5,7.7,7.7,7.7c4.2,0,7.7-3.5,7.7-7.7S17.6,22.1,13.3,22.1z"/>
</g>
<g>
	<circle class="st0" cx="38.7" cy="29.7" r="8.5"/>
	<path class="st1" d="M38.7,38.9c-5.1,0-9.2-4.1-9.2-9.2s4.1-9.2,9.2-9.2c5.1,0,9.2,4.1,9.2,9.2S43.7,38.9,38.7,38.9z M38.7,22
		c-4.2,0-7.7,3.5-7.7,7.7s3.5,7.7,7.7,7.7c4.2,0,7.7-3.5,7.7-7.7S42.9,22,38.7,22z"/>
</g>
<g>
	
		<ellipse transform="matrix(0.9988 -4.861069e-002 4.861069e-002 0.9988 -1.4026 0.8409)" class="st1" cx="16.6" cy="29.3" rx="1.5" ry="1.5"/>
</g>
<g>
	
		<ellipse transform="matrix(0.9988 -4.861069e-002 4.861069e-002 0.9988 -1.3751 1.7497)" class="st1" cx="35.3" cy="29.1" rx="1.5" ry="1.5"/>
</g>
<g>
	<path class="st1" d="M31.4,42.6H20.6c-0.4,0-0.8-0.3-0.8-0.8s0.3-0.8,0.8-0.8h10.7c0.4,0,0.8,0.3,0.8,0.8S31.8,42.6,31.4,42.6z"/>
</g>
<g>
	<path class="st1" d="M30.3,31.8c-0.4,0-0.7-0.2-0.7-0.6c0-0.1-0.6-2.5-3.5-2.5c-3.1,0-3.6,2.2-3.6,2.5c-0.1,0.4-0.5,0.7-0.9,0.6
		c-0.4-0.1-0.7-0.4-0.6-0.8c0.2-1.3,1.5-3.8,5.1-3.8c3.4,0,4.8,2.4,5,3.7c0.1,0.4-0.2,0.8-0.6,0.9C30.4,31.8,30.4,31.8,30.3,31.8z"
		/>
</g>
</svg>
