<?xml version="1.0" encoding="utf-8"?>
<!-- Generator: Adobe Illustrator 19.2.1, SVG Export Plug-In . SVG Version: 6.00 Build 0)  -->
<svg version="1.1" id="Layer_1" xmlns="http://www.w3.org/2000/svg" xmlns:xlink="http://www.w3.org/1999/xlink" x="0px" y="0px"
	 viewBox="0 0 52 52" style="enable-background:new 0 0 52 52;" xml:space="preserve">
<style type="text/css">
	.st0{fill:#010101;}
	.st1{fill:#FFFFFF;}
</style>
<g>
	<path class="st0" d="M25.3,35.3c2.7,0.1,2.9,3.6,5,3.6c3.3,0,2.9-3.2,5.4-3.1c2.7,0,4.1,3.6,5,3.6c3,0,2.9-2.8,3.1-5.3
		c0.4-4.1,0-2.4-0.3-3c-0.2-0.4-8.9-1-17.6-1.1c-12.8-0.2-17.3,0.2-17.7,0.7c-0.2,0.3-0.3,0.6,0.1,4.2c0.2,2.3,0.7,4.5,2.8,4.2
		c1-0.2,2.2-3.6,4.1-3.5c2.4,0.1,3.3,3.5,5.2,3.5C22.4,39.1,22.8,35.2,25.3,35.3z"/>
	<path class="st0" d="M40.8,39.9c-0.6,0-1-0.5-1.7-1.3c-0.9-1-1.9-2.3-3.4-2.3c0,0,0,0,0,0c-0.9,0-1.3,0.5-1.9,1.2
		c-0.7,0.9-1.5,1.9-3.5,1.9c-1.2,0-1.9-0.9-2.6-1.8c-0.7-0.9-1.3-1.8-2.5-1.8h0c-1.1,0-1.7,0.9-2.3,1.8c-0.7,1-1.4,1.9-2.6,1.9
		c-1.1,0-1.9-0.9-2.6-1.8C17,36.9,16.3,36,15.2,36c-0.9-0.1-1.7,1.1-2.4,2c-0.6,0.8-1.1,1.4-1.7,1.5c-0.7,0.1-1.3,0-1.8-0.4
		c-1.1-0.8-1.4-2.6-1.5-4.2c-0.4-3.6-0.3-4.1,0-4.5C8.2,30,8.7,29.2,26,29.5c0.2,0,15.8,0.3,17.9,1.3c0.2,0,0.3,0,0.4,0.1
		c0.3,0.2,0.4,0.4,0.1,3.3c0,0.3,0,0.6-0.1,0.8C44.2,37.2,44,39.9,40.8,39.9z M35.7,35.3C35.8,35.3,35.8,35.3,35.7,35.3
		c2,0,3.2,1.6,4.2,2.7c0.3,0.4,0.7,0.9,0.9,0.9c2.1,0,2.3-1.5,2.5-4c0-0.3,0-0.6,0.1-0.9c0.1-1.2,0.2-2,0.2-2.3
		c-0.1,0-0.2-0.1-0.3-0.2c-1.1-0.3-8.9-0.9-17.3-1C11.4,30.3,9,30.8,8.6,31c-0.1,0.1-0.1,0.8,0.2,3.8c0.1,1.3,0.4,3,1.2,3.5
		c0.3,0.2,0.6,0.3,1,0.2c0.2,0,0.7-0.7,1-1.1c0.8-1.1,1.8-2.4,3.2-2.4c1.5,0,2.4,1.1,3.3,2.1c0.6,0.7,1.2,1.4,1.9,1.4
		c0.6,0,1.1-0.5,1.7-1.5c0.7-1,1.6-2.3,3.2-2.2c1.7,0.1,2.6,1.3,3.3,2.2c0.6,0.9,1.1,1.4,1.8,1.4c1.5,0,2.1-0.8,2.8-1.6
		C33.7,36.2,34.4,35.3,35.7,35.3z"/>
</g>
<g>
	<path class="st1" d="M43.3,32.6c0.3-1.9,0-1.1-0.3-1.4c-0.2-0.2-8.6-1.1-17-1.2C13.6,29.8,9.3,30.2,9,30.6
		c-0.3,0.4-0.3,1.2,0.2,1.6C10.1,32.8,43.1,33.8,43.3,32.6z"/>
	<path class="st0" d="M33.4,33.6c-9.9,0-23.6-0.4-24.4-1c-0.4-0.3-0.6-0.6-0.6-1.1c-0.1-0.5,0.1-0.9,0.3-1.2
		c0.7-0.9,9.8-0.9,17.3-0.8c6.4,0.1,15.8,0.8,17.2,1.3c0.1,0,0.4,0,0.6,0.2c0.3,0.3,0.2,0.6,0.1,1.7l0,0c0,0.2-0.1,0.4-0.4,0.5
		C42.7,33.5,38.6,33.6,33.4,33.6z M19.7,30.4c-7.3,0-10,0.3-10.4,0.5c0,0-0.1,0.2,0,0.4c0,0.1,0.1,0.3,0.2,0.4
		c1.4,0.5,30.4,1.4,33.3,0.6c0-0.3,0.1-0.5,0.1-0.6c-0.1,0-0.1,0-0.2-0.1c-0.8-0.2-8.6-1-16.8-1.2C23.6,30.4,21.5,30.4,19.7,30.4z
		 M43.3,32.6L43.3,32.6L43.3,32.6z M42.8,32.6L42.8,32.6L42.8,32.6z M43.3,30.9L43.3,30.9L43.3,30.9z M43.2,30.8
		c0.1,0,0.1,0,0.1,0.1C43.3,30.8,43.2,30.8,43.2,30.8z"/>
</g>
<g>
	<circle class="st0" cx="9" cy="25.3" r="2.1"/>
</g>
<g>
	<circle class="st0" cx="43.2" cy="25.3" r="2.1"/>
</g>
<g>
	<path class="st0" d="M12.8,34.1c-0.4,0-0.8-0.3-0.8-0.8v-2.9c0-0.4,0.3-0.8,0.8-0.8s0.8,0.3,0.8,0.8v2.9
		C13.5,33.7,13.2,34.1,12.8,34.1z"/>
</g>
<g>
	<path class="st0" d="M17.3,34.1c-0.4,0-0.8-0.3-0.8-0.8v-2.9c0-0.4,0.3-0.8,0.8-0.8s0.8,0.3,0.8,0.8v2.9
		C18.1,33.7,17.7,34.1,17.3,34.1z"/>
</g>
<g>
	<path class="st0" d="M21.8,34.1c-0.4,0-0.8-0.3-0.8-0.8v-2.9c0-0.4,0.3-0.8,0.8-0.8s0.8,0.3,0.8,0.8v2.9
		C22.6,33.7,22.2,34.1,21.8,34.1z"/>
</g>
<g>
	<path class="st0" d="M26.3,34.2c-0.4,0-0.8-0.3-0.8-0.8v-2.9c0-0.4,0.3-0.8,0.8-0.8s0.8,0.3,0.8,0.8v2.9
		C27.1,33.9,26.7,34.2,26.3,34.2z"/>
</g>
<g>
	<path class="st0" d="M30.8,34.2c-0.4,0-0.8-0.3-0.8-0.8v-2.9c0-0.4,0.3-0.8,0.8-0.8s0.8,0.3,0.8,0.8v2.9
		C31.6,33.9,31.2,34.2,30.8,34.2z"/>
</g>
<g>
	<path class="st0" d="M35.3,34.5c-0.4,0-0.8-0.3-0.8-0.8v-2.9c0-0.4,0.3-0.8,0.8-0.8s0.8,0.3,0.8,0.8v2.9
		C36.1,34.1,35.7,34.5,35.3,34.5z"/>
</g>
<g>
	<path class="st0" d="M39.8,34.5c-0.4,0-0.8-0.3-0.8-0.8v-2.9c0-0.4,0.3-0.8,0.8-0.8s0.8,0.3,0.8,0.8v2.9
		C40.6,34.1,40.2,34.5,39.8,34.5z"/>
</g>
</svg>
